<?xml version="1.0" encoding="UTF-8" standalone="no"?>
<!DOCTYPE svg PUBLIC "-//W3C//DTD SVG 1.1//EN" "http://www.w3.org/Graphics/SVG/1.1/DTD/svg11.dtd">
<svg width="100%" height="100%" viewBox="0 0 900 900" version="1.1" xmlns="http://www.w3.org/2000/svg" xmlns:xlink="http://www.w3.org/1999/xlink" xml:space="preserve" xmlns:serif="http://www.serif.com/" style="fill-rule:evenodd;clip-rule:evenodd;stroke-linejoin:round;stroke-miterlimit:2;">
    <g transform="matrix(1.7456,0,0,1.59988,-2428.22,-3971.44)">
        <g id="path1" transform="matrix(3.50127,0,0,3.50127,1304.17,2300.32)">
            <path d="M96.101,171.459L96.104,171.459L45.181,171.937L45.181,147.653L57.326,147.653L57.326,124.214L69.685,124.214L69.685,100.356L82.15,100.243L82.16,81.829L87.178,76.653C89.937,73.806 93.072,70.566 94.143,69.453L96.091,67.429L96.099,130.98L96.101,171.459Z" style="fill:none;fill-rule:nonzero;stroke:white;stroke-width:0.71px;"/>
        </g>
        <g id="path11" serif:id="path1" transform="matrix(-3.50127,0,0,3.50127,1993.15,2300.32)">
            <path d="M96.101,171.459L96.104,171.459L45.181,171.937L45.181,147.653L57.326,147.653L57.326,124.214L69.685,124.214L69.685,100.356L82.15,100.243L82.16,81.829L87.178,76.653C89.937,73.806 93.072,70.566 94.143,69.453L96.091,67.429L96.099,130.98L96.101,171.459Z" style="fill:none;fill-rule:nonzero;stroke:white;stroke-width:0.71px;"/>
        </g>
        <g transform="matrix(0.512207,0,0,0.4267,1275.64,2018.46)">
            <g transform="matrix(0.833061,0,0,1,66.1977,0)">
                <g transform="matrix(72.8683,0,0,72.8683,727.999,1996.91)">
                </g>
                <text x="396.539px" y="1996.91px" style="font-family:'FZLTTHB--B51-0', 'Lantinghei TC', monospace;font-size:72.868px;fill:white;">U<tspan x="487.955px 575.385px 666.801px " y="1996.91px 1996.91px 1996.91px ">BUD</tspan></text>
            </g>
        </g>
        <g transform="matrix(0.512207,0,0,0.4267,1470.44,2018.51)">
            <g transform="matrix(0.833061,0,0,1,66.1977,0)">
                <g transform="matrix(72.8683,0,0,72.8683,719.459,1996.91)">
                </g>
                <text x="396.539px" y="1996.91px" style="font-family:'FZLTTHB--B51-0', 'Lantinghei TC', monospace;font-size:72.868px;fill:white;">T<tspan x="483.116px 565.992px 654.561px " y="1996.91px 1996.91px 1996.91px ">ECH</tspan></text>
            </g>
        </g>
        <g transform="matrix(0.611572,0,0,0.327986,1264.5,2287.41)">
            <g transform="matrix(0.536836,0,0,1,183.663,0)">
                <g transform="matrix(82.9494,0,0,82.9494,1236.08,1996.91)">
                </g>
                <text x="396.539px" y="1996.91px" style="font-family:'FZLTZHB--B51-0', 'Lantinghei TC', monospace;font-size:82.949px;fill:white;">M<tspan x="568.205px 718.486px 868.767px 1015.81px 1173.22px " y="1996.91px 1996.91px 1996.91px 1996.91px 1996.91px ">EETUP</tspan></text>
            </g>
        </g>
    </g>
</svg>
